<svg id="图层_1" data-name="图层 1" xmlns="http://www.w3.org/2000/svg" viewBox="0 0 951.08 951.08"><defs><style>.cls-1{fill:#fff;}.cls-2{fill:#5b2b18;}.cls-3{fill:#f8c164;}</style></defs><circle class="cls-1" cx="475.54" cy="475.54" r="475.54"/><circle class="cls-2" cx="475.53" cy="475.54" r="436.21" transform="translate(-196.98 475.53) rotate(-45)"/><path class="cls-3" d="M431,547.77a417,417,0,0,1,44.56,81,417,417,0,0,1,44.56-81,379.13,379.13,0,0,1,136-118.22c14.72-7.62,18.68-27.11,7.4-39.26a257.68,257.68,0,0,0-98-65.89l-90,30.39-90-30.39a257.56,257.56,0,0,0-98,65.89c-11.28,12.15-7.33,31.63,7.39,39.26A379,379,0,0,1,431,547.77Z"/><path class="cls-1" d="M226.15,384.35a310.5,310.5,0,0,1,105.12-91.63l15.16-43.48-140.3-59.37,269.41-76.52L745,189.87l-55,23.26v31.68a26,26,0,1,1-18.37,0V220.9l-67,28.34,15.15,43.48a310.5,310.5,0,0,1,105.12,91.63,25.2,25.2,0,0,0,26.44,9.8,527.55,527.55,0,0,1,89.74-13.6c17.78-1.21,29.27-19.11,23.59-36C810,182.05,656.47,65,475.54,65s-334.49,117-389.16,279.54c-5.68,16.89,5.81,34.79,23.59,36a527.83,527.83,0,0,1,89.75,13.6A25.18,25.18,0,0,0,226.15,384.35Z"/><path class="cls-1" d="M788.27,438.55A25.18,25.18,0,0,0,769,471.16a306.87,306.87,0,0,1,14.49,93.45V699.25c0,16.11,20.84,22.7,30,9.45a408.53,408.53,0,0,0,72.62-233.16q0-9.35-.42-18.58a27.13,27.13,0,0,0-28.08-26A514.49,514.49,0,0,0,788.27,438.55Z"/><path class="cls-1" d="M720.11,487.16A25.23,25.23,0,0,0,685,472q-73.2,36.22-121.71,103.68C511,648.49,501.11,722.92,501,723.66c0,.09,0,.17-.06.26a25.54,25.54,0,0,1-1,4.3c0,.1-.07.2-.1.3a25.4,25.4,0,0,1-1.74,4.08l-.07.12a25.58,25.58,0,0,1-17.78,13l-.13,0c-.51.1-1,.2-1.53.27a25.68,25.68,0,0,1-3.14.19c-.37,0-.72-.09-1.09-.1-.68,0-1.36,0-2-.13-.26,0-.5-.09-.75-.13-.49-.08-1-.15-1.46-.26a25.5,25.5,0,0,1-3.27-.92c-.39-.14-.77-.3-1.16-.46a25.65,25.65,0,0,1-3.2-1.57c-.26-.15-.51-.33-.76-.49a25,25,0,0,1-3-2.23c-.16-.13-.3-.28-.45-.42a24.48,24.48,0,0,1-2.53-2.66c-.14-.17-.29-.32-.42-.49a26,26,0,0,1-2.17-3.29c-.12-.21-.25-.41-.36-.63a25.77,25.77,0,0,1-1.59-3.74l-.19-.57a25.62,25.62,0,0,1-.91-4.19c0-.1-.05-.19-.06-.29-.09-.68-10-75.11-62.23-147.92Q339.47,508.27,266.11,472A25.22,25.22,0,0,0,231,487.16a254.66,254.66,0,0,0-12,77.45V751.83a85.83,85.83,0,0,0,40.67,72.92,410.74,410.74,0,0,0,431.8,0,85.8,85.8,0,0,0,40.67-72.92V564.61A255,255,0,0,0,720.11,487.16ZM336.79,668.52a36.12,36.12,0,1,1,36.12-36.12A36.11,36.11,0,0,1,336.79,668.52Zm277.5,0a36.12,36.12,0,1,1,36.12-36.12A36.12,36.12,0,0,1,614.29,668.52Z"/><path class="cls-1" d="M167.63,564.61a306.82,306.82,0,0,1,14.49-93.45,25.18,25.18,0,0,0-19.31-32.61,512.88,512.88,0,0,0-69.3-7.6,27.13,27.13,0,0,0-28.08,26Q65,466.19,65,475.54A408.53,408.53,0,0,0,137.63,708.7c9.17,13.25,30,6.66,30-9.45Z"/></svg>